<svg xmlns="http://www.w3.org/2000/svg" width="236.287" height="163" viewBox="0 0 236.287 163"><defs><style>.a{fill:#fff;}</style></defs><g transform="translate(743.017 -351.298)"><path class="a" d="M-632.422,377.823c.051-.879.365-1.146,1.169-1.309,11.856-2.406,23.455-5.65,34.473-10.741a70.176,70.176,0,0,0,15.558-9.467c13.048,10.068,28.171,15,43.768,18.818,2.15.526,4.325.956,6.492,1.411.609.128,1.007.287,1.035,1.071.561,15.884-1.412,31.359-7.571,46.126-6.261,15.011-16.2,26.842-30.687,34.507-3.9,2.062-8.11,3.528-12.206,5.2a2.768,2.768,0,0,1-1.751-.062c-20.733-6.817-35.157-20.4-43.364-40.593a96.918,96.918,0,0,1-6.458-26.983,113.871,113.871,0,0,1-.459-17.979m2.662,43.223c8.389,23.054,24.075,38.6,47.59,46.025a3.138,3.138,0,0,0,1.751.089,74.606,74.606,0,0,0,22.312-10.984c13.141-9.608,21.5-22.578,26.509-37.875a108.353,108.353,0,0,0,4.881-24.9,124.5,124.5,0,0,0,.151-18.221,1.468,1.468,0,0,0-1.415-1.633,165.122,165.122,0,0,1-30.181-8.43c-7.094-2.813-13.93-6.122-19.916-10.946a35.3,35.3,0,0,1-2.852-2.87h-.23c-.618.622-1.2,1.285-1.86,1.861-5.274,4.6-11.391,7.807-17.762,10.564-10.64,4.6-21.779,7.532-33.12,9.77-1.76.348-1.749.361-1.86,2.181a123.8,123.8,0,0,0,.175,17.648,105.779,105.779,0,0,0,5.828,27.725" transform="translate(-43.563)"/><path class="a" d="M-696.134,559.1l-13.5-1.734c0,.944-.036,1.781.025,2.61a.916.916,0,0,0,.517.608c2.064.806,2.686,1.88,2.254,4.057q-.858,4.327-1.751,8.649c-.364,1.743-.776,3.476-1.166,5.213a2.112,2.112,0,0,1-.434-1.021c-1.087-6.6-2.16-13.195-3.273-19.786-.063-.375-.4-.952-.68-1-2.915-.519-5.848-.949-8.839-1.415-1.416,7.172-2.816,14.259-4.216,21.347a3.2,3.2,0,0,1-.468-1.335c-.722-4.681-1.417-9.367-2.165-14.045-.425-2.659-.127-3.263,2.407-4.264a7.07,7.07,0,0,1,.009-1.105c.169-1.078-.233-1.481-1.347-1.689-4.766-.89-9.508-1.908-14.259-2.88v.459a2.7,2.7,0,0,1,.231.514q3.581,16.338,7.15,32.677c.773,3.536,1.554,7.069,2.351,10.689,3.2,0,6.336.022,9.466-.04.259-.005.658-.546.737-.9,1.029-4.544,2.011-9.1,3.011-13.647.3-1.367.623-2.728.936-4.091a3.011,3.011,0,0,1,.485,1.258c1.055,5.475,2.127,10.946,3.138,16.429.139.757.384,1.02,1.156,1.009q4.131-.059,8.264,0c.752.009,1.026-.244,1.209-.992,2.325-9.534,4.7-19.056,7.054-28.583.565-2.285,1.11-4.575,1.7-6.992" transform="translate(0 -82.702)"/><path class="a" d="M-438.8,587.89a5.193,5.193,0,0,1-5.316,4.191,4.307,4.307,0,0,1-4.523-2.83,12.206,12.206,0,0,1-1.048-4.524,62.6,62.6,0,0,1,.834-8.509,6.112,6.112,0,0,1,2.452-3.895,4.909,4.909,0,0,1,7.814,2.149,38.342,38.342,0,0,1,1.095,5.858c-.424,2.547-.664,5.106-1.307,7.56m.511-25.318a25.612,25.612,0,0,0-7.511-.065c-5.981.865-10.6,3.9-12.975,9.641a25.581,25.581,0,0,0-.85,18.15c1.709,5.24,4.975,9.07,10.505,10.566.908.246,1.844.386,2.767.575h3.214a9.738,9.738,0,0,1,1.083-.243c5.777-.636,10.365-3.237,12.693-8.674a27.463,27.463,0,0,0-.262-23.3,11.249,11.249,0,0,0-8.666-6.645" transform="translate(-114.723 -87.141)"/><path class="a" d="M-386.4,569.71c-.451.039-.908.005-1.544.005,0-2.213-.019-4.306.024-6.4a.929.929,0,0,1,.538-.7c1.375-.3,2.764-.56,4.158-.753,1.043-.145,1.623.4,1.853,1.425.76,3.385-1.35,6.1-5.029,6.421m17.475,22.5c-2.015.049-2.7-.606-2.719-2.621-.012-1.492.076-2.989-.018-4.475-.266-4.2-.165-8.526-3.147-11.646a31.784,31.784,0,0,0,3.154-4.727,16.247,16.247,0,0,0,.493-11.442c-1.407-4.662-6.27-6.824-9.9-5.6a27.3,27.3,0,0,1-3.692.8c-5.292.992-10.588,1.959-15.875,2.976-.338.065-.837.448-.871.729a23.941,23.941,0,0,0-.042,2.814c2.29.187,2.876.769,3.089,2.973.048.493.044.993.044,1.49q0,12.854,0,25.709c0,2.651-.265,2.931-2.912,3.085-.064,0-.124.069-.215.124v3.21h16.664v-3.279c-3-.382-3.084-.474-3.084-3.468v-8.034c0-2.6,0-2.6,2.571-2.6,1.816,0,2.34.443,2.64,2.274a10.077,10.077,0,0,1,.122,1.6c.01,4.055,0,8.111.008,12.166,0,.442.041.883.063,1.327h14.591v-3.381c-.372,0-.673-.006-.972,0" transform="translate(-138.777 -82.721)"/><path class="a" d="M-589.1,583.108a20.706,20.706,0,0,1-3.76.178.86.86,0,0,1-.589-.6c-.046-1.941-.027-3.884-.027-5.975,1.563,0,2.937-.077,4.3.021a2.4,2.4,0,0,1,2.3,2.528c.13,2.19-.569,3.546-2.225,3.851m11.259,14.345c-.071-.875-.119-1.753-.18-2.629-.2-2.789-.892-5.357-3.165-7.133a23.416,23.416,0,0,0,2.674-2.955,11.212,11.212,0,0,0,1.24-8.828,8.588,8.588,0,0,0-8.151-6.295c-5.229.079-10.464-.258-15.7-.384-2.122-.051-4.245-.009-6.465-.009,0,.682.03,1.441-.009,2.2-.033.656.085,1.026.866,1.151a2.822,2.822,0,0,1,2.317,2.138,9.852,9.852,0,0,1,.308,2.6c.024,6.119.014,12.238.012,18.357,0,2.5-.6,3.231-3.016,3.829a1.042,1.042,0,0,0-.674.668c-.083.862-.032,1.737-.032,2.678h17.546c0-.752-.043-1.433.011-2.106.064-.8-.148-1.206-1.041-1.391a2.343,2.343,0,0,1-2.171-2.291q-.051-3.556.013-7.113a1,1,0,0,1,.559-.759c2.516-.529,4.146.637,4.375,3.2.172,1.938.214,3.889.265,5.836.041,1.545.008,3.092.008,4.6h12.4v-3.244c-1.538-.276-1.872-.637-1.992-2.11" transform="translate(-54.943 -89.956)"/><path class="a" d="M-531.9,583.222a40.906,40.906,0,0,1-4.286.275v-6.656c1.5,0,2.945-.1,4.372.028s2.192,1.233,2.229,2.868c.043,1.855-.774,3.228-2.315,3.484m11.269,14.254c-.028-.458-.026-.918-.057-1.375-.218-3.132-.587-6.207-3.38-8.387,3.577-3.2,4.43-5.069,4.353-9.418a8.935,8.935,0,0,0-9.21-8.824q-7.97.178-15.942.307c-1.817.03-3.635,0-5.49,0v3.463c2.722.857,3.261,1.521,3.456,4.287.059.838.1,1.679.095,2.519-.024,5.239-.069,10.479-.1,15.718-.014,2.563-.471,3.144-2.988,3.826-.261.071-.63.375-.648.6-.074.9-.031,1.808-.031,2.742H-533.1v-3.217c-.508-.141-.957-.234-1.383-.391-.862-.318-1.688-.824-1.715-1.8-.077-2.7-.027-5.413-.027-8.1,3.078-.708,4.574.29,5,3.254a11.4,11.4,0,0,1,.09,1.258c.066,2.1.131,4.2.181,6.3.022.9,0,1.8,0,2.669h12.338V599.64c-1.518-.21-1.919-.652-2.012-2.164" transform="translate(-78.209 -90.063)"/><path class="a" d="M-638.578,585.811q-1.841-6.26-3.687-12.52c-.5-1.688.033-2.43,1.818-2.559.4-.029.8,0,1.224,0V567.11l-22.7-1.855v3.09c2.408.62,2.9,1.469,2.269,3.835-.069.258-.141.516-.228.768q-4.112,11.9-8.229,23.8c-.508,1.469-1.04,2.93-1.6,4.495h17.324a8.8,8.8,0,0,0-3.3-5.988,1.256,1.256,0,0,1-.471-1.639c.771-2.358,1.478-4.736,2.207-7.107q1.375-4.469,2.749-8.94l.259-.005c.1.316.218.629.3.95,1.152,4.63,2.24,9.277,3.48,13.883.4,1.5.514,2.671-.994,3.572a3.418,3.418,0,0,0-.95,1.134,7.837,7.837,0,0,0-1.478,4.09h16.5c-.077-.3-.116-.485-.169-.664q-2.159-7.361-4.322-14.722" transform="translate(-29.794 -88.355)"/><path class="a" d="M-492.736,571.237c2.691.281,3.16.809,3.209,3.536,0,.038,0,.076,0,.115.017,3.555.052,7.11.048,10.665,0,3.594-.036,7.187-.076,10.781-.016,1.368-.5,1.848-1.847,1.944-.215.016-.427.062-.722.106V601.6h15.779v-3.264c-1.96-.247-2.461-.633-2.463-1.991-.014-7.569-.035-15.139,0-22.708.014-2.776.534-3.329,3.18-3.885v-3.5l-17.113,1.246Z" transform="translate(-101.701 -88.758)"/><path class="a" d="M-606.778,432.182c6.219,16.753,17.272,28.892,34.052,35.549a3.143,3.143,0,0,0,2.513-.035,57.021,57.021,0,0,0,31.642-29.861c5.318-11.331,7.465-23.369,7.779-35.8.024-.947-.55-1-1.174-1.182-5.1-1.465-10.209-2.894-15.285-4.433-2.317-.7-4.567-1.626-7.039-2.518.286.51.459.839.65,1.157,2.882,4.824,5.713,9.68,8.67,14.457a15.312,15.312,0,0,1,2.1,10.129c-.935,8.024-4.4,14.96-9.513,21.117a11.931,11.931,0,0,1-4.853,3.561,6.281,6.281,0,0,1-8.051-2.638,19.7,19.7,0,0,1-2.7-10.3,28.09,28.09,0,0,1,7.125-19.111,1.251,1.251,0,0,0,.214-1.68c-3.467-6.508-6.879-13.046-10.311-19.573-.147-.279-.33-.539-.53-.862-.153.218-.23.305-.283.4-3.559,6.762-7.126,13.519-10.643,20.3a1.424,1.424,0,0,0,.226,1.252,28.806,28.806,0,0,1,7.182,17.5,20.513,20.513,0,0,1-2.894,12.412,5.921,5.921,0,0,1-6.34,2.7,9.3,9.3,0,0,1-5.416-3.02,39.519,39.519,0,0,1-10.279-20.625,16.974,16.974,0,0,1,2.588-12.7c3.019-4.64,5.729-9.482,8.606-14.292-.163-.068-.2-.1-.229-.093a189.12,189.12,0,0,1-22.5,7.042,1.2,1.2,0,0,0-.645.926c.022,1.872.111,3.745.235,5.613a86.836,86.836,0,0,0,5.107,24.6" transform="translate(-53.242 -15.754)"/></g></svg>